<mxfile host="app.diagrams.net" modified="2023-11-27T15:32:28.572Z" agent="Mozilla/5.0 (Windows NT 10.0; Win64; x64) AppleWebKit/537.36 (KHTML, like Gecko) Chrome/109.0.0.0 Safari/537.36" version="22.1.4" etag="ijBqezaoYQheqzSl5JGH" type="github">
  <diagram name="Page-1" id="Wagw-iWTo49MvhJouoN4">
    <mxGraphModel>
      <root>
        <mxCell id="0" />
        <mxCell id="1" parent="0" />
      </root>
    </mxGraphModel>
  </diagram>
</mxfile>
